<svg width="179" height="51" viewBox="0 0 179 51" fill="none" xmlns="http://www.w3.org/2000/svg">
<path d="M19.0549 2.20618C17.5471 0.814804 15.5433 0.0895691 13.4929 0.0895691H0V6.41433H2.32075V20.3818H13.5717C15.3857 20.3818 17.1693 19.8213 18.6054 18.7111C23.0195 15.298 19.5867 10.4577 19.5867 10.4577C22.0543 6.47521 20.8115 3.82856 19.0549 2.20618ZM14.4528 14.5387C14.1358 15.0097 13.6022 15.2765 13.0471 15.2765H8.46644V11.9243H13.0471C13.5682 11.9243 14.0731 12.1571 14.3937 12.5833C14.9774 13.3605 14.7805 14.0517 14.4528 14.5387ZM14.4528 8.0188C14.1358 8.48975 13.6022 8.75657 13.0471 8.75657H8.46644V5.40437H13.0471C13.5682 5.40437 14.0731 5.63717 14.3937 6.06335C14.9774 6.84052 14.7805 7.53173 14.4528 8.0188Z" fill="black"/>
<path d="M22.1492 0.376083V6.72233H24.0885L24.067 20.3818H40.828V15.7403L29.783 15.7833L29.8188 0.376083H22.1492Z" fill="black"/>
<path d="M45.534 0.376083H31.1582V6.72233H35.6708L33.0922 14.8163H41.795V18.0396H45.1472L46.0658 20.5931H52.5124L45.534 0.376083ZM39.5387 13.8243L41.5371 7.66066L44.0513 13.8243H39.5387Z" fill="black"/>
<path d="M60.5061 14.4295H67.7101V20.5931H59.9742C59.9742 20.5931 50.9491 20.3353 50.5623 10.4846C50.5623 10.4846 50.1522 5.70342 54.6523 2.45509C56.5665 1.07267 58.8891 0.376083 61.2492 0.376083H75.5748V8.24085L80.9254 0.376083H88.0166L80.9487 10.9L83.9875 13.8368C84.317 14.1555 84.7575 14.3364 85.2178 14.34L88.5323 14.3668V20.5949H83.6724C82.9543 20.5949 82.2523 20.3818 81.6596 19.9753C80.2665 19.0209 77.8723 17.0422 75.5748 14.494L75.7037 20.5931H69.4452V6.75815H60.5687C59.9241 6.75815 59.2866 6.92647 58.7368 7.26134C57.8612 7.79317 56.7778 8.79239 56.8172 10.4559C56.8172 10.4559 56.5414 12.7104 58.7655 13.9747C59.2955 14.2755 59.899 14.4277 60.5096 14.4277L60.5061 14.4295Z" fill="black"/>
<path d="M131.66 0.376083H109.161V8.36978L102.876 8.24085L102.908 0.376083H94.5276V6.59698H96.7194L96.7839 20.7793L102.876 20.7041V12.8179L109.129 12.8823V20.7793H115.285V6.53252L121.635 6.66145L116.897 20.7793H123.344L124.149 18.104L131.047 18.1363L131.982 20.7793H138.493L131.66 0.376083ZM125.6 13.7849L127.566 7.85406L129.79 13.7849H125.6Z" fill="black"/>
<path d="M178.327 7.86122C177.761 5.88966 176.39 3.28956 173.084 1.63136C171.388 0.780781 169.504 0.374291 167.608 0.374291H152.417L152.514 5.78938C152.514 5.78938 148.969 -0.463758 137.881 0.374291V6.59519H140.169L140.04 20.7776H146.132V10.3342C146.132 10.3342 152.267 10.3019 152.417 20.7776H158.499V6.59698L160.153 6.62922V20.6504L168.792 20.7793C168.792 20.7793 176.443 21.2414 178.435 12.2198C178.753 10.7801 178.734 9.27946 178.325 7.86122H178.327ZM172.498 10.5294C172.472 11.8849 171.902 12.8 171.247 13.4052C170.47 14.1233 169.433 14.494 168.374 14.494H166.31V6.56475H168.482C169.474 6.56475 170.45 6.88887 171.202 7.53352C172.711 8.82462 172.498 10.5294 172.498 10.5294Z" fill="black"/>
<path d="M82.7108 28.3719C84.0825 28.1141 84.6752 27.7685 84.9008 27.3459C85.0745 27.02 85.5347 26.9859 85.7711 27.2689C86.2546 27.849 86.7399 28.6656 86.4981 29.4284C85.2375 32.718 78.9019 30.2074 78.9019 30.2074C77.6449 29.8725 75.9419 29.3998 74.1548 28.85C73.3794 28.6101 72.5772 28.474 71.766 28.4507C68.3923 28.354 60.2947 28.9682 61.6163 37.2699C61.6378 37.406 61.6539 37.5439 61.6593 37.6818L61.6664 37.8286C61.6933 38.099 61.3835 38.0292 61.0003 37.8483C59.9778 37.363 59.2418 36.4122 59.0413 35.2984C58.4217 31.8513 61.9279 29.6201 61.9279 29.6201C66.1826 26.3538 73.0266 27.6753 73.0266 27.6753C76.7262 28.2949 78.7659 28.4704 79.8707 28.4973C79.8707 28.4973 81.7903 28.5438 82.709 28.3701L82.7108 28.3719Z" fill="black"/>
<path d="M56.2943 47.9461C56.0096 47.4716 55.9433 46.9702 55.9774 46.5261C56.0454 45.6253 56.579 44.8356 57.3419 44.3522C58.4611 43.643 59.0609 44.0853 59.3045 44.379C59.3797 44.4703 59.3475 44.61 59.2364 44.6566C58.0599 45.1472 57.7609 45.9262 57.7627 46.5959C57.7663 47.3713 58.1978 48.0804 58.8479 48.5048C60.7908 49.778 62.1875 48.0589 62.1875 48.0589C63.3694 47.0919 66.5712 38.0095 66.5712 38.0095C69.5795 29.6791 75.5587 29.2726 75.5587 29.2726L76.531 29.5538C76.2499 29.475 75.4871 30.0158 74.9051 30.476C74.9051 30.476 73.2362 32.0232 72.8816 32.6051C71.3505 35.1139 69.4506 39.5477 69.4506 39.5477L66.9705 44.5473C66.7717 44.9485 66.5533 45.3388 66.3026 45.7077L66.299 45.7131C66.299 45.7131 63.176 52.2957 57.4171 48.974C56.8763 48.6624 56.5164 48.315 56.2943 47.9461Z" fill="black" stroke="black" stroke-miterlimit="10"/>
<path d="M118.186 38.7974C118.186 38.7974 118.928 36.3155 116.639 35.5455C116.639 35.5455 116.353 35.4792 115.894 35.4506C115.894 35.4506 113.552 35.1999 110.39 38.2566C109.98 38.6541 109.023 38.8099 107.55 38.638C107.55 38.638 108.153 36.6074 106.282 35.5849C106.076 35.4721 105.845 35.4094 105.61 35.3897C104.443 35.2966 100.777 35.481 98.4528 40.9283C98.1054 41.7431 97.6918 42.5292 97.1761 43.2491C96.5511 44.1247 95.7202 45.0093 94.9251 44.9986C94.7711 44.9968 94.6368 44.9001 94.5885 44.7533C94.336 43.9904 93.8579 41.0179 97.6434 33.4468H102.629L102.672 32.8666H97.7724L99.6526 29.6433C99.6526 29.6433 96.2198 30.9684 95.7095 32.8379L90.7242 32.8666L92.368 29.6433C92.368 29.6433 88.7257 31.6453 88.5323 32.8702L84.3421 32.8988L84.3099 33.3823H88.2422C88.2422 33.3823 82.6015 44.6637 80.2163 45.2439C80.2163 45.2439 79.1849 45.3424 81.9569 39.1197L83.1495 35.9287C83.1495 35.9287 81.0544 35.3485 80.2808 36.9924C80.2808 36.9924 80.1393 34.9707 77.6073 35.7066C76.7459 35.9573 75.9616 36.4193 75.2919 37.0174C73.5298 38.5933 69.6297 42.7029 71.8394 46.5565C72.271 47.3068 73.1753 47.6667 73.9883 47.3677C74.8012 47.0687 75.8882 46.2324 77.2509 44.2769C77.2509 44.2769 77.122 44.9807 77.1542 45.697C77.1542 45.697 77.6001 49.2873 80.6819 46.4383C81.6077 45.5824 82.811 43.9994 84.4066 41.2471C84.4066 41.2471 83.504 47.5163 85.8893 47.5092C85.8893 47.5092 88.0811 48.7251 91.4333 41.9562C91.4333 41.9562 90.7886 47.622 93.4962 47.5933C93.4962 47.5933 95.8384 47.5002 97.6434 43.7612C97.6434 43.7612 97.3784 46.0283 98.5227 47.0884C98.5227 47.0884 99.7189 48.6982 102.346 47.2137C103.766 46.4097 105.736 44.4918 107.421 39.5495C107.421 39.5495 108.903 39.0087 109.677 39.5495C109.677 39.5495 108.187 42.2481 108.375 44.6691C108.375 44.6691 108.407 48.7322 112.855 47.0418C114.743 46.3237 116.317 43.5069 116.317 43.5069C116.97 42.4827 117.61 41.1934 118.188 39.5495C118.188 39.5495 120.96 39.7393 121.734 38.0113C121.734 38.0113 118.833 39.3794 118.188 38.7992L118.186 38.7974ZM78.1516 41.6034C76.814 43.9206 75.1397 45.4606 74.4144 45.0398C73.6892 44.6208 74.1852 42.4021 75.5229 40.0849C76.8605 37.7677 78.5348 36.2277 79.2601 36.6486C79.9853 37.0676 79.4893 39.2863 78.1516 41.6034ZM87.1463 44.8249C86.2116 41.3438 90.4018 33.4468 90.4018 33.4468H95.4624C88.7687 47.6291 87.1463 44.8249 87.1463 44.8249ZM105.019 41.641C103.88 44.1301 102.181 45.7937 101.223 45.355C100.265 44.9162 100.412 42.5435 101.551 40.0545C102.69 37.5654 104.389 35.9018 105.347 36.3406C106.305 36.7793 106.158 39.152 105.019 41.641ZM115.624 41.641C114.485 44.1301 112.786 45.7937 111.828 45.355C110.87 44.9162 111.016 42.5435 112.155 40.0545C113.294 37.5654 114.994 35.9018 115.952 36.3406C116.91 36.7793 116.763 39.152 115.624 41.641Z" fill="black" stroke="black" stroke-miterlimit="10"/>
</svg>
